<svg xmlns="http://www.w3.org/2000/svg" version="1.1" xmlns:xlink="http://www.w3.org/1999/xlink" xmlns:svgjs="http://svgjs.com/svgjs" width="1440" height="560" preserveAspectRatio="none" viewBox="0 0 1440 560" style="user-select: auto;"><g mask="url(&quot;#SvgjsMask1000&quot;)" fill="none" style="user-select: auto;"><rect width="1440" height="560" x="0" y="0" fill="#1e3266" style="user-select: auto;"></rect><path d="M1488 560L0 560 L0 306.62Q68.28 254.9, 120 323.18Q195.69 278.87, 240 354.55Q291.58 286.13, 360 337.71Q371.8 277.5, 432 289.3Q497.19 234.5, 552 299.69Q621.57 249.26, 672 318.83Q750.35 277.17, 792 355.52Q818.24 309.76, 864 336Q901.87 253.87, 984 291.74Q1035.11 270.85, 1056 321.96Q1110.64 256.6, 1176 311.24Q1251.68 266.92, 1296 342.6Q1372.24 298.85, 1416 375.09Q1442.08 329.16, 1488 355.24z" fill="#182f5d" style="user-select: auto;"></path><path d="M1488 560L0 560 L0 427.25Q2.58 357.83, 72 360.41Q127.86 344.27, 144 400.14Q215.38 351.52, 264 422.9Q281.36 368.26, 336 385.62Q379.57 309.19, 456 352.76Q525.31 302.06, 576 371.37Q645.51 368.88, 648 438.4Q667.81 386.21, 720 406.02Q772.83 338.85, 840 391.68Q920.69 352.37, 960 433.06Q965 366.06, 1032 371.05Q1081.92 300.97, 1152 350.89Q1206.47 333.36, 1224 387.82Q1302.42 346.24, 1344 424.66Q1388.93 397.6, 1416 442.53Q1424.45 378.98, 1488 387.43z" fill="#25467d" style="user-select: auto;"></path><path d="M1488 560L0 560 L0 496.67Q59.67 436.34, 120 496Q142.03 398.03, 240 420.07Q314.32 374.39, 360 448.72Q412.5 381.23, 480 433.73Q539.11 420.84, 552 479.94Q624.78 432.72, 672 505.49Q707.27 420.76, 792 456.04Q871.65 415.7, 912 495.35Q938.58 401.94, 1032 428.52Q1106 382.52, 1152 456.52Q1182.13 414.65, 1224 444.79Q1286.75 435.54, 1296 498.29Q1343.96 426.25, 1416 474.21Q1438.27 424.48, 1488 446.75z" fill="#356cb1" style="user-select: auto;"></path><path d="M1512 560L0 560 L0 547.96Q31.7 459.66, 120 491.37Q168 467.38, 192 515.38Q281.43 484.81, 312 574.24Q365.27 507.51, 432 560.78Q477.96 486.74, 552 532.7Q634.33 495.03, 672 577.35Q691.7 525.05, 744 544.74Q764 492.74, 816 512.74Q900.48 477.22, 936 561.69Q963.65 517.35, 1008 545Q1024.62 489.62, 1080 506.24Q1148.42 454.66, 1200 523.08Q1290.65 493.73, 1320 584.38Q1341.49 533.88, 1392 555.37Q1457.35 500.72, 1512 566.07z" fill="white" style="user-select: auto;"></path></g><defs style="user-select: auto;"><mask id="SvgjsMask1000" style="user-select: auto;"><rect width="1440" height="560" fill="#ffffff" style="user-select: auto;"></rect></mask></defs></svg>